/* XPM */
static char *Pvwi1aD4[] = {
/* columns rows colors chars-per-pixel */
"16 16 156 2 ",
"   c #323130",
".  c #3F393B",
"X  c #3E3D3C",
"o  c #484644",
"O  c #4B474C",
"+  c #4D4C4A",
"@  c #4E4D4A",
"#  c #554E4C",
"$  c #554F4F",
"%  c #52514E",
"&  c #53514F",
"*  c #58514F",
"=  c #524F52",
"-  c #565552",
";  c #595350",
":  c #5B5554",
">  c #5B5A57",
",  c #5C5A57",
"<  c #5D5C59",
"1  c #5F5D5A",
"2  c #5F5C5D",
"3  c #605E5B",
"4  c #615F5C",
"5  c #635F62",
"6  c #616065",
"7  c #686663",
"8  c #6A6965",
"9  c #6B6966",
"0  c #6C6A67",
"q  c #6D6B67",
"w  c #626169",
"e  c #6A6769",
"r  c #69666B",
"t  c #6B6868",
"y  c #6D6A6B",
"u  c #6F6D6A",
"i  c #706E6B",
"p  c #716F6B",
"a  c #73716D",
"s  c #73716E",
"d  c #75736F",
"f  c #676772",
"g  c #736F75",
"h  c #767470",
"j  c #797773",
"k  c #7E7976",
"l  c #73737C",
"z  c #7E7C78",
"x  c #7F7D79",
"c  c #807D79",
"v  c #807E7A",
"b  c #827F7B",
"n  c #847F7C",
"m  c #847E7E",
"M  c #82807C",
"N  c #84827E",
"B  c #85827E",
"V  c #85837F",
"C  c #6D7080",
"Z  c #737786",
"A  c #757884",
"S  c #7D7E8E",
"D  c #787C90",
"F  c #807B82",
"G  c #807C83",
"H  c #7F8189",
"J  c #7D818F",
"K  c #7C8297",
"L  c #878580",
"P  c #878581",
"I  c #8A8581",
"U  c #8A8584",
"Y  c #8C8785",
"T  c #8A8884",
"R  c #8B8887",
"E  c #8C8984",
"W  c #908B89",
"Q  c #918C88",
"!  c #908D89",
"~  c #908E89",
"^  c #908D8A",
"/  c #97928D",
"(  c #999691",
")  c #9A9692",
"_  c #9C9792",
"`  c #9E9A95",
"'  c #A09E99",
"]  c #A2A09A",
"[  c #A5A09D",
"{  c #A4A29C",
"}  c #A7A29D",
"|  c #A6A19E",
" . c #A6A39E",
".. c #A6A49E",
"X. c #A7A59F",
"o. c #A9A59F",
"O. c #9097AC",
"+. c #A8A4A0",
"@. c #ABA7A1",
"#. c #ADA9A2",
"$. c #AEABA6",
"%. c #B3AFA9",
"&. c #B2AFAA",
"*. c #B3AFAA",
"=. c #B6B1A9",
"-. c #B4B1AB",
";. c #B6B1AA",
":. c #B5B3AD",
">. c #B7B5AF",
",. c #BBB8B1",
"<. c #BCB8B1",
"1. c #BCB9B3",
"2. c #BEBBB5",
"3. c #BFBCB6",
"4. c #C1BDB5",
"5. c #C0BDB7",
"6. c #C2BEB6",
"7. c #C1BEB8",
"8. c #C2BFB9",
"9. c #C3C0BA",
"0. c #C4C1BB",
"q. c #C5C1BB",
"w. c #C5C2BB",
"e. c #C4C1BC",
"r. c #C5C2BC",
"t. c #C5C3BC",
"y. c #C5C3BD",
"u. c #C6C3BC",
"i. c #C6C3BD",
"p. c #C7C3BD",
"a. c #C7C4BD",
"s. c #C7C4BE",
"d. c #C8C4BC",
"f. c #C8C5BE",
"g. c #C8C5BF",
"h. c #C8C6BF",
"j. c #CAC7BF",
"k. c #C9C6C0",
"l. c #CAC6C0",
"z. c #CAC7C0",
"x. c #CBC8C1",
"c. c #CCC9C2",
"v. c #CCC9C3",
"b. c #CDC9C3",
"n. c #CDCAC3",
"m. c #CECBC4",
"M. c #CECCC5",
"N. c #CFCCC5",
"B. c #D0CDC6",
"V. c #D0CEC6",
"C. c #D1CEC7",
"Z. c #D3CFC6",
"A. c #D1CEC8",
"S. c #D4D1CA",
"D. c #D9D6CE",
"F. c None",
/* pixels */
"F.F.F.F.F.F.Z Z K K F.F.F.F.F.F.",
"F.F.F.F.P l w 5 r f S O.F.F.F.F.",
"F.F.F.6 y _ -.6.6.-._ g D F.F.F.",
"F.F.O n f.C.f.w.w.f.B.d.Y C F.F.",
"F.F.W D.e.9.s.v.f.f.9.s.Z.R F.F.",
"F.t X.-.f.f.:.X.-.$.s.w.e.f.r F.",
"F.^ @ , 3.v.] 1 o d v.6.9.v._ F.",
"= +.% > e.C.>.B 0 B C.v.v.S.%.. ",
"2 &.X % T ' M j ( B ! V L M o.& ",
"F.X.8 4 + z > a v 4 x y @   R : ",
"F.` - 1 i d 1 d i a x u 7 0 c F.",
"F.I 6.6.2.d.| ^ w.1.3.6.6.v.k F.",
"F.F.o.A.w.e.e.f.f.f.e.w.C.} F.F.",
"F.F.; +.C.f.e.f.f.w.f.C.#.; F.F.",
"F.F.F.F./ <.e.| | f.<.^ F.F.F.F.",
"F.F.F.F.F.F.U F F n # F.F.F.F.F."
};
