/* XPM */
static char *JtT580Kl[] = {
/* columns rows colors chars-per-pixel */
"64 64 175 2 ",
"   c #010101",
".  c #0C0B0B",
"X  c #080707",
"o  c #130D0E",
"O  c #131313",
"+  c #1A1517",
"@  c #1B151A",
"#  c #1C1B1B",
"$  c #181817",
"%  c #131010",
"&  c #211C1E",
"*  c #21201F",
"=  c #241D22",
"-  c #251F28",
";  c #252323",
":  c #292326",
">  c #2C262B",
",  c #2D2C2C",
"<  c #292827",
"1  c #322C2D",
"2  c #32312F",
"3  c #2D2B31",
"4  c #332E33",
"5  c #342F39",
"6  c #353333",
"7  c #393535",
"8  c #393836",
"9  c #35323A",
"0  c #3A353A",
"q  c #3D3A3B",
"w  c #423D3D",
"e  c #42363B",
"r  c #42403E",
"t  c #3C3942",
"y  c #433D42",
"u  c #433F4A",
"i  c #454342",
"p  c #4A4443",
"a  c #4A4946",
"s  c #4A454A",
"d  c #4D4B4A",
"f  c #454249",
"g  c #524D4D",
"h  c #54514F",
"j  c #4D4B53",
"k  c #474652",
"l  c #534E53",
"z  c #565453",
"x  c #5A5554",
"c  c #5A5956",
"v  c #5C5B5B",
"b  c #59565A",
"n  c #4E525A",
"m  c #625E5C",
"M  c #615A56",
"N  c #63615E",
"B  c #69615E",
"V  c #565661",
"C  c #5B5C69",
"Z  c #5D606B",
"A  c #666362",
"S  c #6B6663",
"D  c #6C6966",
"F  c #62636C",
"G  c #6A676D",
"H  c #6E6D6A",
"J  c #726E6B",
"K  c #766D65",
"L  c #74716D",
"P  c #7A726C",
"I  c #6A6B74",
"U  c #6A6D7A",
"Y  c #656876",
"T  c #6F707C",
"R  c #767472",
"E  c #7A7571",
"W  c #7B7975",
"Q  c #74747C",
"!  c #7D7C7B",
"~  c #76787D",
"^  c #837B75",
"/  c #827E7A",
"(  c #837668",
")  c #85827E",
"_  c #8B847D",
"`  c #686E81",
"'  c #6D7488",
"]  c #737684",
"[  c #7C7D83",
"{  c #747A8C",
"}  c #787B88",
"|  c #767D91",
" . c #797F91",
".. c #857F89",
"X. c #7D818C",
"o. c #7B8085",
"O. c #7C8393",
"+. c #7C8499",
"@. c #868482",
"#. c #898682",
"$. c #8C8A85",
"%. c #83848B",
"&. c #8D8C89",
"*. c #85888C",
"=. c #938C84",
"-. c #918E8A",
";. c #95928D",
":. c #9C958C",
">. c #838492",
",. c #878A95",
"<. c #8D8E93",
"1. c #858A9B",
"2. c #8B8D9B",
"3. c #8E8790",
"4. c #928C95",
"5. c #928E99",
"6. c #8D919D",
"7. c #8F9296",
"8. c #979590",
"9. c #999692",
"0. c #9D9A94",
"q. c #99979C",
"w. c #A39D94",
"e. c #A19E99",
"r. c #A5A29D",
"t. c #A9A49C",
"y. c #ABA59B",
"u. c #B0AA9F",
"i. c #848DA4",
"p. c #8C91A2",
"a. c #8A93AB",
"s. c #9295A3",
"d. c #9B9BA4",
"f. c #949AAD",
"g. c #9699A7",
"h. c #939CB3",
"j. c #9D9EB0",
"k. c #A19CA3",
"l. c #9BA4BA",
"z. c #99A1B5",
"x. c #9DA1AD",
"c. c #A9A6A0",
"v. c #ADAAA4",
"b. c #A0A1AB",
"n. c #B2ACA5",
"m. c #B1AEA9",
"M. c #B5B2AC",
"N. c #BAB5AC",
"B. c #BAB5AB",
"V. c #A6A7B6",
"C. c #B9B6B1",
"Z. c #BDBAB3",
"A. c #BAB8BE",
"S. c #B2B0B6",
"D. c #C1BDB5",
"F. c #C2BFB9",
"G. c #C7C2B7",
"H. c #C5C2BC",
"J. c #C9C5BE",
"K. c #CCC9BF",
"L. c #A3ACC3",
"P. c #ABB3C8",
"I. c #BCBCCA",
"U. c #CAC7C0",
"Y. c #CDCAC3",
"T. c #D0CDC6",
"R. c #D2CFC8",
"E. c #D5D2CB",
"W. c #D9D6CF",
"Q. c #DEDAD3",
"!. c #DAD7D0",
"~. c #E1DDD6",
"^. c #E5E1DA",
"/. c #EDE9E2",
"(. c None",
/* pixels */
"(.(.(.(.(.(.(.(.(.(.(.(.(.(.(.(.(.(.(.(.(.(.(.(.(.(.(.(.(.(.n C U Y V (.(.(.(.(.(.(.(.(.(.(.(.(.(.(.(.(.(.(.(.(.(.(.(.(.(.(.(.(.",
"(.(.(.(.(.(.(.(.(.(.(.(.(.(.(.(.(.(.(.(.(.(.(.(.(.C Z F Y '  .+.+.| { ' ' ` Y ] (.(.(.(.(.(.(.(.(.(.(.(.(.(.(.(.(.(.(.(.(.(.(.(.",
"(.(.(.(.(.(.(.(.(.(.(.(.(.(.(.(.(.(.(.(.(.(.6.~ ] { O.O.1.1.2.s.g.x.f.f.h.i.| |  .| ..(.(.(.(.(.(.(.(.(.(.(.(.(.(.(.(.(.(.(.(.(.",
"(.(.(.(.(.(.(.(.(.(.(.(.(.(.(.(.(.(.(.(.F <.,.T Q T U U U Y J ( K E Y ]  .>.1.p.f.i.a.P.p.(.(.(.(.(.(.(.(.(.(.(.(.(.(.(.(.(.(.(.",
"(.(.(.(.(.(.(.(.(.(.(.(.(.(.(.(.(.(.I U Q [ U ] X.2.s.2.*...[ [ Q ..2.s.1. .} {  .1.h.L.L.a.' (.(.(.(.(.(.(.(.(.(.(.(.(.(.(.(.(.",
"(.(.(.(.(.(.(.(.(.(.(.(.(.(.(.(.(.o.~ *.S.b.p.k.g.,.] F l f j b l k C I ]  .>.s.s.1.1.I.L.P.L...(.(.(.(.(.(.(.(.(.(.(.(.(.(.(.(.",
"(.(.(.(.(.(.(.(.(.(.(.(.(.(.(.~ %.o.,.d.V.s...F k 6 > - = : > > > 3 3 3 5 t j C ` 5.g.V.j.| l.P.a.` (.(.(.(.(.(.(.(.(.(.(.(.(.(.",
"(.(.(.(.(.(.(.(.(.(.(.(.(.(.! [ ,.d.d.q...[ 7 : < 6 p x S E ^ / / ^ E S x u 4 > - u 3.f.l...{ i.L.h.' (.(.(.(.(.(.(.(.(.(.(.(.(.",
"(.(.(.(.(.(.(.(.(.(.(.(.(.! o.d.5.v Q b 4 > w m _ y.Z.H.K.Y.Y.U.U.Y.Y.J.F.D.w._ m e > 4 T 2...2.1.f.h.O.(.(.(.(.(.(.(.(.(.(.(.(.",
"(.(.(.(.(.(.(.(.(.(.(.(.,.*.<.I 7 4 6 4 h _ n.K.Y.K.J.H.H.H.H.H.F.F.F.F.F.U.K.T.K.D.=.M 5 e u Y p.h.a.a. .(.(.(.(.(.(.(.(.(.(.(.",
"(.(.(.(.(.(.(.(.(.(.(.*.7.! d 6 6 0 c 9.F.T.K.F.H.G.H.H.H.H.H.H.F.J.J.J.J.F.U.F.J.U.K.F.w.m 0 0 k 1.L.f.V.O.(.(.(.(.(.(.(.(.(.(.",
"(.(.(.(.(.(.(.(.(.(.(.7.R t 0 0 g -.G.Y.J.F.F.J.H.H.H.H.H.H.U.H.F.J.F.J.F.U.F.U.F.F.F.J.U.J.:.l 5 t { V.l.l.(.(.(.(.(.(.(.(.(.(.",
"(.(.(.(.(.(.(.(.(.(.[ S 0 q 0 K C.Y.H.H.H.U.H.H.H.H.H.H.H.H.H.H.J.J.H.F.U.F.H.F.J.F.U.F.F.J.T.D.R t t I f.z.+.(.(.(.(.(.(.(.(.(.",
"(.(.(.(.(.(.(.(.(.5.V 6 q y -.Y.U.H.H.H.H.H.H.U.H.H.H.H.H.H.H.H.U.F.H.H.H.U.H.H.J.J.F.U.F.J.F.J.K.w.s 9 b a.a.' (.(.(.(.(.(.(.(.",
"(.(.(.(.(.(.(.(.(.b q t g y.T.H.H.H.H.U.H.H.H.H.H.H.H.U.H.H.H.H.F.U.F.H.H.F.H.H.F.F.U.F.U.F.U.F.F.T.n.g 9 j f.a.(.(.(.(.(.(.(.(.",
"(.(.(.(.(.(.(.(.b w e g N.Y.F.H.H.H.H.H.H.H.H.H.H.H.H.H.H.H.H.U.J.F.U.H.F.U.U.H.F.U.F.U.F.J.F.U.G.F.U.B.b 5 j l.i.(.(.(.(.(.(.(.",
"(.(.(.(.(.(.(.Q i q l M.U.H.H.H.H.H.H.H.H.U.H.H.H.H.H.H.H.H.H.H.H.H.H.H.H.H.H.H.F.U.H.H.H.H.H.H.H.J.F.U.D.x 4 I l.(.(.(.(.(.(.(.",
"(.(.(.(.(.(.(.j t s n.Y.H.H.H.U.U.H.H.H.H.H.H.H.H.H.H.H.H.H.H.H.H.U.H.H.H.U.H.H.H.H.H.H.H.H.H.H.J.F.J.F.K.M.u 0 { a.(.(.(.(.(.(.",
"(.(.(.(.(.(.d q y e.Y.H.H.H.H.H.H.H.H.H.U.H.H.H.H.H.H.H.U.H.H.H.H.H.H.H.H.H.H.H.U.H.H.H.H.H.H.H.H.H.F.J.H.Y.w.0 9 | (.(.(.(.(.(.",
"(.(.(.(.(.(.f 0 @.Y.H.H.H.U.H.H.H.H.H.H.H.H.H.H.H.H.U.H.H.H.H.H.H.H.H.H.H.H.H.H.H.F.U.H.H.H.U.H.H.H.H.H.F.F.T._ 5 k i.(.(.(.(.(.",
"(.(.(.(.(.s 0 N J.H.H.H.H.H.H.H.H.H.H.H.H.H.H.H.H.H.H.F.H.H.H.H.H.H.H.H.H.H.H.H.H.H.H.H.H.H.H.H.H.H.F.H.F.J.F.K.C > C (.(.(.(.(.",
"(.(.(.(.b y t c.U.G.F.G.H.H.H.H.H.H.H.H.H.H.H.H.U.H.H.H.H.H.H.H.H.H.H.H.H.H.H.H.H.H.U.H.H.H.H.H.H.H.U.H.H.H.J.U.y.4 t (.(.(.(.(.",
"(.(.(.(.A 9 R Y.T.T.R.E.E.T.H.H.H.H.H.H.H.H.H.H.H.H.U.Y.U.U.H.Y.U.H.U.H.U.Y.Y.H.H.H.A.H.H.H.H.H.H.U.F.F.H.H.H.F.Y.S > V (.(.(.(.",
"(.(.(.(.y q m.D.c x c g c ) H.H.H.U.U.H.H.H.H.H.G.R.L ; 8 < &.6 8.c.2 ;.i 8 7 c.Y.H.H.H.H.H.U.H.H.H.U.H.H.H.J.F.K.v., V (.(.(.(.",
"(.(.(.~ 4 m U.H.;   X # .   v T.Z.H.H.H.H.H.H.H.H.U.@.j   D @.X &.c.  9.. d 0.M.H.H.H.H.H.H.H.H.H.H.H.H.H.H.H.H.G.U.m > (.(.(.(.",
"(.(.(.G 0 9.U.T.d   ; R.@.  . v.Y.H.H.H.H.H.H.H.H.Z.W.;.X G.Z.. 8.c.. r.% R /.H.H.H.H.H.H.H.H.H.H.H.U.H.H.H.H.H.G.Y.0.: F (.(.(.",
"(.(.(.9 l Z.H.R.z   ; H.Z.$   ) R.H.H.U.H.H.H.U.H.F.T.)   M.C.O $ # . 0.# ; v G.U.A.H.H.H.H.H.H.H.H.H.H.H.H.H.H.H.U.Z.q q (.(.(.",
"(.(.(.6 A U.F.R.z   ; G.H.<   D R.G.H.A.H.H.H.H.H.H.T.#.X M.Z.. D R . e.$ , H H.H.H.U.H.H.H.U.H.H.H.H.H.H.H.H.H.H.G.Y.D = (.(.(.",
"(.(.u 3 @.T.F.R.z   ; Z.U.6   N R.F.H.H.Z.U.H.H.H.F.R.@.  M.Z.. 0.m.X r.O H Q.F.Z.H.U.H.H.F.H.H.H.H.H.H.H.H.H.H.H.F.Y.=.= 5 (.(.",
"(.(.y 6 r.Y.Z.R.x   ; Z.J.2   H R.G.H.H.H.H.H.H.H.H.T.#.X C.Z.. ;.t.. e.O H Q.H.H.U.H.H.H.H.U.H.H.H.H.H.H.H.H.H.H.H.Y.n.: > (.(.",
"(.(.t s C.J.G.E.x   ; E.M.%   #.R.Z.H.U.H.H.H.H.H.F.E.W   v.Z.  -.r.  8.X z @.&.Y.H.H.H.H.H.H.H.H.H.H.H.H.H.H.H.H.H.G.D.7 - (.(.",
"(.(.9 z H.H.F.R.x   $ 9.d   O C.U.H.H.H.H.H.H.H.H.F.U.W q e.Z.r 0.c.i 8.d a q e.R.Z.F.H.H.H.G.H.H.H.H.H.H.F.H.H.H.H.H.J.p = (.(.",
"(.(.6 c H.H.H.R.z   .     . $.T.H.T.T.T.U.H.K.Y.Y.H.Y.W.!.E.Y.E.E.U.T.Y.W.W.Q.Y.F.J.E.E.H.H.E.T.H.H.Y.Y.J.T.K.J.Y.H.F.Y.c # (.(.",
"(.(.3 N Y.H.A.R.z   % d ; X m H.M.;.8.$.c.Y.M.&.;.H.0.$.&.@.v.r.$.C.J.v.;.;.$.v.T.M.J R H.F.L W H.H.;.e.m.&.C.C.;.Z.J.Y.B # (.(.",
"(.(.3 S Y.H.G.R.z   ; Y.v..   R e.  $ $ m W.e.  < F.#       h N   r.W.R   * $ ! M.. O 2 C.8 ; O a T.$ 8 -.  N n.X M.J.Y.S @ (.(.",
"(.(.3 D K.H.F.R.z   ; Z.E.d   2 r.  m E.C.T.8.  , v.v.H   ) m.v X v.E.$.  ! Y.U.d   m.E.&.  C.J   M., i t.  2 v.* C.H.T.S + (.(.",
"(.(.3 v K.H.G.R.c   ; C.T.!   $ #.  N ^.F.E.R $ $ v.~.L   $.^.S   v.E.$.  ) ^.H.# 6 U.E.A X H.$.  $.2 r t.  O &.< N.G.T.B + (.(.",
"(.(., g H.H.F.R.z   ; Z.E.;.  % ! X 2 S r.W.d d % &.!.J   #.Q.S   M.E.$.  r D v.. d R.T.d . H.8.  ! 8 r r.X   m 6 Z.J.K.x + (.(.",
"(.(.9 r G.H.F.R.x   ; Z.Y.8.  % ! . $ < 0.E.2 #.$ L ~.H   $.Q.A X M.E.$.  # 6 r.. h T.T.i % U.0.  W 8 i 0.; # ; 7 C.H.J.r @ (.(.",
"(.(.(.6 v.U.F.E.x   ; Z.E.#.  $ $.  N Q.H.Z.* R O h ~.H   #.~.A X M.E.$.  ) Q.M.. d T.T.a . U.:.  W 7 i 8.q z   ; G.H.D.1 = (.(.",
"(.(.(.4 :.Y.F.R.z   ; Z.E.L   < 0.  v Y.J.c..     q Q.H   $.Q.A   m.E.&.  W Y.G.$ 8 Y.Y.z X F.$.  $.6 i ;.q $.  ; F.T.y.& : (.(.",
"(.(.(.: J T.D.T.x   # H.E.8   c m.  S Q.Y.$.O S ; # R.L   #.Q.N X G.E.!   ) ~.U.2 O U.~.R   C.*.  v.6 a 8.6 C.. ; F.T.) + (.(.(.",
"(.(.(., g J.F.Y.6     q 8   $ C.e.  i ) S c * /.N   m.R   #.Q.c   c a H   v R H &.  a -.c.X a 2 ; Y.# 8 -.* R.< % F.Y.c @ (.(.(.",
"(.(.(.(.4 c.T.M.d i i 6 2 z v.E.0.r i 2 H A z Y.$.8 9.W   #.!.L q 6 c $.8 r 2 ! W.W < r Y.-.2 r v.Y.h N 9.h T.W a F.C.1 & (.(.(.",
"(.(.(.(.w P T.F.T.T.T.T.T.R.U.F.U.T.T.R.U.U.T.F.U.R.E.L   $.R.U.Y.E.R.U.Y.Y.R.Y.G.R.Y.R.H.Y.R.R.U.G.R.Y.J.Y.H.Y.Y.T._ & (.(.(.(.",
"(.(.(.(.j w D.J.H.F.F.F.F.H.H.H.H.F.H.F.H.H.F.J.G.D.E.H   $.R.A.F.G.H.H.F.H.H.H.H.A.H.H.H.G.G.H.H.H.G.H.F.F.J.F.D.H.p = (.(.(.(.",
"(.(.(.(.(.7 _ T.H.H.H.H.H.H.H.H.H.H.H.H.H.J.J.H.J.H.U.i   A T.F.H.H.H.H.H.H.H.H.H.H.H.H.H.H.H.H.H.H.U.H.H.J.J.H.T.:.& (.(.(.(.(.",
"(.(.(.(.(.l y D.H.H.U.H.H.H.H.H.H.H.H.H.H.H.H.H.H.H.D.c.c.v.H.U.H.H.H.H.H.H.H.H.H.H.H.H.H.H.H.H.H.H.H.H.H.H.H.G.K.a = (.(.(.(.(.",
"(.(.(.(.(.(.> ^ T.D.J.J.F.U.F.J.H.H.H.H.H.H.H.H.H.H.U.Y.U.Y.U.H.H.H.H.H.A.U.F.U.U.F.F.U.H.H.F.U.H.H.H.H.J.H.H.T.=.& (.(.(.(.(.(.",
"(.(.(.(.(.(.(.7 u.U.F.F.J.F.U.F.F.H.H.H.F.J.H.H.F.U.F.F.F.F.F.H.H.H.H.H.H.F.U.H.F.F.U.H.F.H.H.H.A.H.H.H.G.D.J.B.7 # (.(.(.(.(.(.",
"(.(.(.(.(.(.(.: h G.J.J.F.U.F.J.H.U.J.H.U.U.H.H.F.U.U.F.F.U.U.F.H.U.H.H.H.H.U.F.H.U.U.F.U.U.U.F.H.H.J.H.H.F.K.M @ (.(.(.(.(.(.(.",
"(.(.(.(.(.(.(.(.: K K.F.U.F.U.F.H.H.H.H.H.F.H.H.U.H.F.U.U.H.F.U.H.H.H.H.H.H.F.U.U.F.H.F.U.F.F.H.H.H.H.H.H.T.^ & (.(.(.(.(.(.(.(.",
"(.(.(.(.(.(.(.(.(.> _ K.F.U.F.U.H.H.H.H.H.H.J.H.F.U.F.U.F.U.U.F.H.H.H.H.U.F.U.F.F.F.U.H.H.H.H.U.H.H.H.G.Y.:.; = (.(.(.(.(.(.(.(.",
"(.(.(.(.(.(.(.(.(.> 1 =.Y.F.F.F.H.F.H.H.H.H.H.H.F.F.U.F.F.F.H.H.H.H.H.H.F.H.F.U.F.U.U.F.H.F.H.H.H.H.G.T.w.; & (.(.(.(.(.(.(.(.(.",
"(.(.(.(.(.(.(.(.(.(.: 1 =.T.U.F.H.U.H.F.H.U.H.H.U.U.U.F.U.U.F.F.H.H.H.H.U.F.U.F.U.F.H.F.H.J.G.H.H.G.Y.:.: & (.(.(.(.(.(.(.(.(.(.",
"(.(.(.(.(.(.(.(.(.(.(.: > ^ Y.U.H.H.H.U.H.F.H.H.H.F.F.U.U.F.F.U.H.H.H.H.F.U.F.U.F.U.F.U.J.G.H.D.H.T._ : & (.(.(.(.(.(.(.(.(.(.(.",
"(.(.(.(.(.(.(.(.(.(.(.(.(.: B D.T.F.G.G.H.J.H.H.H.H.H.H.F.T.Y.H.H.Y.Y.F.H.F.U.F.J.F.J.J.J.F.H.T.G.S & (.(.(.(.(.(.(.(.(.(.(.(.(.",
"(.(.(.(.(.(.(.(.(.(.(.(.(.(.: w :.T.U.H.F.H.H.H.H.H.H.H.J.../ D.H./ -.F.F.J.F.J.F.J.G.F.F.J.T.w.p @ (.(.(.(.(.(.(.(.(.(.(.(.(.(.",
"(.(.(.(.(.(.(.(.(.(.(.(.(.(.(.: > B n.T.U.H.F.H.H.H.H.H.F.l y n.C.e l D.J.J.U.F.F.G.F.K.T.N.S - = (.(.(.(.(.(.(.(.(.(.(.(.(.(.(.",
"(.(.(.(.(.(.(.(.(.(.(.(.(.(.(.(.(.= 1 K n.U.T.J.H.F.F.F.T.( y F.J.g M T.F.F.F.J.J.T.K.n.K 1 & > (.(.(.(.(.(.(.(.(.(.(.(.(.(.(.(.",
"(.(.(.(.(.(.(.(.(.(.(.(.(.(.(.(.(.(.(.: 1 h =.B.U.T.U.m.k.k.3.F.F.4.4.k.S.U.Y.K.D.=.M > = = (.(.(.(.(.(.(.(.(.(.(.(.(.(.(.(.(.(.",
"(.(.(.(.(.(.(.(.(.(.(.(.(.(.(.(.(.(.(.(.(.> - 4 l P 3.q.4.V.k.S.I.k.k...q.w.^ h 4 & + > (.(.(.(.(.(.(.(.(.(.(.(.(.(.(.(.(.(.(.(.",
"(.(.(.(.(.(.(.(.(.(.(.(.(.(.(.(.(.(.(.(.(.(.(.(.@ % e k.4.G G e y G Q 5.4.> + + @ (.(.(.(.(.(.(.(.(.(.(.(.(.(.(.(.(.(.(.(.(.(.(.",
"(.(.(.(.(.(.(.(.(.(.(.(.(.(.(.(.(.(.(.(.(.(.(.(.(.(.(.(.(.u u o o y x (.(.(.(.(.(.(.(.(.(.(.(.(.(.(.(.(.(.(.(.(.(.(.(.(.(.(.(.(."
};
