/* XPM */
static char *wNfw52w4[] = {
/* columns rows colors chars-per-pixel */
"32 32 132 2 ",
"   c #0C0507",
".  c #0E0E0E",
"X  c #100F0F",
"o  c #151514",
"O  c #191215",
"+  c #1C191A",
"@  c #211B1D",
"#  c #251D21",
"$  c #242423",
"%  c #2B252A",
"&  c #2C2B2A",
"*  c #302D2E",
"=  c #31302F",
"-  c #322F36",
";  c #363333",
":  c #383636",
">  c #3A3937",
",  c #3C373A",
"<  c #3D3B3A",
"1  c #433C3C",
"2  c #41403E",
"3  c #3E3B42",
"4  c #433E41",
"5  c #454342",
"6  c #4A4544",
"7  c #494846",
"8  c #46424A",
"9  c #49444B",
"0  c #4D4B4A",
"q  c #514D4C",
"w  c #52514E",
"e  c #434552",
"r  c #494754",
"t  c #4F4C54",
"y  c #504E52",
"u  c #555252",
"i  c #595655",
"p  c #5A5956",
"a  c #55525B",
"s  c #5A565A",
"d  c #5D5B59",
"f  c #625E5C",
"g  c #63615E",
"h  c #5D5C60",
"j  c #5C5F6A",
"k  c #635F64",
"l  c #656361",
"z  c #6A6663",
"x  c #6C6966",
"c  c #6E6C69",
"v  c #706F6B",
"b  c #73716E",
"n  c #626170",
"m  c #656977",
"M  c #696977",
"N  c #6F727C",
"B  c #767471",
"V  c #7B7671",
"C  c #7C7975",
"Z  c #72747F",
"A  c #79757E",
"S  c #7E7B78",
"D  c #827C77",
"F  c #827D7A",
"G  c #84817D",
"H  c #6D7385",
"J  c #767984",
"K  c #7B7A84",
"L  c #72798B",
"P  c #787C8B",
"I  c #767F91",
"U  c #7E8185",
"Y  c #7B808F",
"T  c #7C8194",
"R  c #7E8398",
"E  c #878580",
"W  c #8A8482",
"Q  c #8C8A85",
"!  c #808389",
"~  c #8D8C8A",
"^  c #918C85",
"/  c #918E89",
"(  c #95928E",
")  c #818696",
"_  c #898790",
"`  c #848894",
"'  c #8A8C94",
"]  c #828798",
"[  c #858B9D",
"{  c #8D8C9A",
"}  c #958F98",
"|  c #979590",
" . c #9A9791",
".. c #9D9A94",
"X. c #90919B",
"o. c #9B969F",
"O. c #A19B96",
"+. c #A19E99",
"@. c #A5A39D",
"#. c #ABA59E",
"$. c #858EA3",
"%. c #8C92A3",
"&. c #8B95AB",
"*. c #9999A1",
"=. c #9297AB",
"-. c #949AAE",
";. c #989BAC",
":. c #949CB2",
">. c #A39FA7",
",. c #9BA2B7",
"<. c #9EA6BC",
"1. c #A6A2A2",
"2. c #AAA6A0",
"3. c #ABA9A3",
"4. c #A5A2A8",
"5. c #B2AEA9",
"6. c #B6B2AC",
"7. c #B8B4AD",
"8. c #A3A8BC",
"9. c #B9B6B0",
"0. c #BEBAB4",
"q. c #C1BDB5",
"w. c #C2BFB9",
"e. c #C5C2BC",
"r. c #C9C5BE",
"t. c #CAC7C1",
"y. c #CDCAC3",
"u. c #D1CEC6",
"i. c #D2CFC8",
"p. c #D4D1C9",
"a. c #D9D6CE",
"s. c None",
/* pixels */
"s.s.s.s.s.s.s.s.s.s.s.s.s.j m L I H H s.s.s.s.s.s.s.s.s.s.s.s.s.",
"s.s.s.s.s.s.s.s.s.s.N K N P P _ ' [ [ T R =.s.s.s.s.s.s.s.s.s.s.",
"s.s.s.s.s.s.s.s.s.J X.' ` Z s s h M J ) %.8.<.$.s.s.s.s.s.s.s.s.",
"s.s.s.s.s.s.s.U ' *._ t 3 5 q s s u 0 8 a { ;.;.&.s.s.s.s.s.s.s.",
"s.s.s.s.s.s.~ Y a 7 u D #.q.r.y.t.w.q.+.F f a n :.&.s.s.s.s.s.s.",
"s.s.s.s.s.s.B ; 0  .r.u.y.r.e.e.w.r.t.y.i.w.O.u r -.<.s.s.s.s.s.",
"s.s.s.s.s.h - D r.u.e.e.e.e.e.e.r.w.r.w.w.r.u.y.F 8 ) $.s.s.s.s.",
"s.s.s.s.t 1 O.i.e.e.e.e.e.e.e.e.w.t.w.t.w.r.w.w.i. .4 R s.s.s.s.",
"s.s.s.s.3 +.u.w.e.e.e.e.e.e.e.e.e.e.e.e.e.e.e.e.w.i.O.9 [ s.s.s.",
"s.s.s., Q y.w.e.e.e.e.e.e.e.e.e.e.e.w.e.e.e.r.e.e.w.i.F e s.s.s.",
"s.s.3 l a.u.u.e.e.e.e.r.e.u.u.y.t.y.i.y.e.r.e.e.e.w.e.u.s e s.s.",
"s.s.8 +.| G ( r.e.e.e.e.e.Q C ( 3.| F ..t.e.e.r.e.r.w.u.@.3 s.s.",
"s.s.k t.o < $ v p.e.e.e.y.v 0 l l 7 2 3.r.e.e.e.e.r.e.e.r.d s.s.",
"s.- W a.$ S B & u.e.e.e.u...b S - i < O.t.e.e.e.e.e.e.w.i.G % s.",
"s., 1.p.+ C G $ y.w.e.w.y.~ l B B 0 w e.e.e.e.w.e.e.e.e.t.#.% s.",
"s.0 0.y.$ f 5 w a.y.r.t.p...C Q G l p / t.y.r.u.r.t.t.r.t.0.1 s.",
"s.w e.y.& o . | 0. .9.6.6.@.+.3.6.e...@.q.( 0...q.5.5.9.6.r.5 s.",
"s.w e.y.$ B B & u 0 r.7 g d $ g g #.$ +.0 c v < l p 5 p C i.7 s.",
"s.0 0.y.$ c 5.o > x u.5 l ..u | f 3.= @.< y.0 Q > d 5 $ G u.2 s.",
"s.5 6.i.$ c 6.+ < w 7.2 p / 0 ( l 5.$ G 5 w.5 ~ > p l . V r.= s.",
"s.* ..a.+ x E $ 5 | 6.+ : G u ~ d ..5 y.& 0.0 b 2 q b : x 7.@ s.",
"s.s.D t.> > ; ( c w g Q x z u +.> c < G c l E < / f C V G G s.s.",
"s.s.p 0.e.w.e.y.e.0.w.e.i.W , i.0.e.w.0.y.0.t.e.t.e.e.e.r.7 s.s.",
"s.s.s./ i.e.t.e.e.e.e.e.y. .v t.e.e.e.t.e.e.e.t.e.e.e.i.( @ s.s.",
"s.s.s.6 q.r.e.e.w.r.w.w.w.t.u.w.e.e.r.e.e.e.e.e.e.e.r.r.2 s.s.s.",
"s.s.s.s.z i.w.e.r.e.r.r.r.r.r.w.e.e.e.e.e.e.r.e.e.e.i.x s.s.s.s.",
"s.s.s.s.@ D p.e.w.r.w.r.w.r.w.r.e.e.e.e.e.e.e.w.e.i.D O s.s.s.s.",
"s.s.s.s.s.@ V u.y.w.e.w.r.w.t.t.t.r.e.r.e.e.w.r.u.C @ s.s.s.s.s.",
"s.s.s.s.s.s.s.f q.i.r.w.w.r.5.5.6.7.r.w.q.r.p.7.f s.s.s.s.s.s.s.",
"s.s.s.s.s.s.s.s.1 F 7.u.u.i.W F G F p.u.u.q.D 1 s.s.s.s.s.s.s.s.",
"s.s.s.s.s.s.s.s.s.s.1 c ^ >.>.>.>.} >.^ z 1 s.s.s.s.s.s.s.s.s.s.",
"s.s.s.s.s.s.s.s.s.s.s.s.s.k K 4 9 F s   s.s.s.s.s.s.s.s.s.s.s.s."
};
